<?xml version="1.0" encoding="UTF-8"?>
<svg xmlns="http://www.w3.org/2000/svg" xmlns:xlink="http://www.w3.org/1999/xlink" width="28" height="28" viewBox="0 0 28 28" version="1.1">
<g id="surface1">
<path style=" stroke:none;fill-rule:nonzero;fill:rgb(0%,0%,0%);fill-opacity:1;" d="M 12.25 0.394531 C 11.015625 0.613281 10.554688 0.710938 9.789062 0.953125 C 7.820312 1.574219 5.875 2.765625 4.320312 4.320312 C 1.695312 6.945312 0.328125 10.257812 0.328125 14 C 0.328125 17.742188 1.695312 21.054688 4.320312 23.679688 C 6.246094 25.605469 8.519531 26.839844 11.320312 27.464844 C 11.746094 27.5625 12.699219 27.617188 14.054688 27.617188 C 15.871094 27.617188 16.265625 27.585938 17.171875 27.355469 C 19.753906 26.710938 21.808594 25.5625 23.679688 23.679688 C 26.335938 21.023438 27.695312 17.75 27.695312 14 C 27.695312 10.25 26.335938 6.976562 23.679688 4.320312 C 22.554688 3.183594 21.230469 2.230469 20.003906 1.664062 C 17.882812 0.679688 16.789062 0.425781 14.382812 0.382812 C 13.367188 0.359375 12.402344 0.359375 12.25 0.394531 Z M 16.832031 2.734375 C 21.085938 3.851562 24.359375 7.1875 25.332031 11.429688 C 25.617188 12.65625 25.617188 15.34375 25.332031 16.570312 C 24.347656 20.835938 21.097656 24.140625 16.777344 25.277344 C 15.945312 25.496094 15.542969 25.539062 14 25.539062 C 12.480469 25.527344 12.042969 25.496094 11.210938 25.277344 C 7.953125 24.445312 5.128906 22.171875 3.621094 19.164062 C 1.398438 14.734375 2.285156 9.339844 5.808594 5.808594 C 7.261719 4.351562 9.273438 3.203125 11.15625 2.746094 C 12.4375 2.4375 12.644531 2.417969 14.382812 2.460938 C 15.519531 2.484375 16.15625 2.558594 16.832031 2.734375 Z M 16.832031 2.734375 "/>
<path style=" stroke:none;fill-rule:nonzero;fill:rgb(0%,0%,0%);fill-opacity:1;" d="M 12.21875 3.390625 C 9.941406 3.773438 7.886719 4.898438 6.203125 6.671875 C 4.890625 8.0625 4.070312 9.558594 3.542969 11.539062 C 3.257812 12.621094 3.257812 15.378906 3.542969 16.460938 C 4.070312 18.441406 4.890625 19.9375 6.203125 21.328125 C 8.257812 23.492188 10.585938 24.566406 13.507812 24.6875 C 15.792969 24.773438 17.730469 24.304688 19.589844 23.175781 C 20.617188 22.5625 22.28125 20.976562 22.9375 19.972656 C 25.34375 16.320312 25.34375 11.679688 22.9375 8.027344 C 22.28125 7.023438 20.617188 5.4375 19.589844 4.824219 C 18.59375 4.222656 17.050781 3.632812 15.96875 3.433594 C 15.070312 3.28125 13.058594 3.257812 12.21875 3.390625 Z M 16.679688 4.15625 C 20.210938 5.152344 22.835938 7.765625 23.867188 11.34375 C 24.085938 12.074219 24.117188 12.445312 24.117188 14 C 24.117188 15.554688 24.085938 15.925781 23.867188 16.65625 C 22.828125 20.234375 20.167969 22.890625 16.625 23.867188 C 15.835938 24.074219 15.433594 24.117188 14 24.117188 C 12.554688 24.117188 12.164062 24.074219 11.375 23.867188 C 7.863281 22.890625 5.152344 20.179688 4.144531 16.625 C 3.925781 15.828125 3.882812 15.453125 3.882812 14 C 3.882812 12.546875 3.925781 12.171875 4.144531 11.375 C 5.261719 7.425781 8.367188 4.636719 12.46875 3.894531 C 12.621094 3.871094 13.429688 3.859375 14.273438 3.871094 C 15.453125 3.90625 16 3.960938 16.679688 4.15625 Z M 16.679688 4.15625 "/>
<path style=" stroke:none;fill-rule:nonzero;fill:rgb(0%,0%,0%);fill-opacity:1;" d="M 12.140625 4.527344 C 7.578125 5.5 4.375 9.40625 4.375 14 C 4.375 17.695312 6.476562 21.042969 9.789062 22.640625 C 11.375 23.40625 12.097656 23.570312 14 23.570312 C 15.171875 23.570312 15.773438 23.515625 16.296875 23.375 C 18.035156 22.902344 19.347656 22.179688 20.59375 21 C 21.929688 19.742188 22.792969 18.320312 23.308594 16.570312 C 23.539062 15.816406 23.570312 15.453125 23.570312 14 C 23.570312 12.546875 23.539062 12.183594 23.308594 11.429688 C 22.792969 9.679688 21.929688 8.257812 20.59375 7 C 19.371094 5.828125 18.035156 5.097656 16.351562 4.636719 C 15.453125 4.398438 13.070312 4.332031 12.140625 4.527344 Z M 18.660156 7.929688 C 18.605469 8.082031 18.636719 8.082031 18.921875 7.929688 C 19.390625 7.6875 19.4375 7.722656 19.109375 8.070312 L 18.8125 8.378906 L 19.316406 8.726562 C 19.71875 9.023438 19.808594 9.132812 19.773438 9.382812 C 19.753906 9.625 19.675781 9.691406 19.414062 9.710938 C 18.582031 9.789062 18.5625 9.8125 18.636719 10.367188 C 18.671875 10.652344 18.703125 11.351562 18.714844 11.921875 C 18.714844 12.929688 18.660156 13.179688 18.242188 13.945312 C 18.179688 14.054688 18.101562 14.40625 18.058594 14.710938 C 17.992188 15.226562 17.96875 15.269531 17.5 15.5 C 17.226562 15.628906 16.855469 15.804688 16.667969 15.871094 L 16.328125 16 L 16.210938 17.378906 C 16 19.546875 16.011719 19.644531 16.4375 19.875 L 16.789062 20.070312 L 16.429688 20.101562 C 15.902344 20.15625 15.640625 19.882812 15.640625 19.292969 C 15.640625 19.03125 15.585938 18.441406 15.507812 17.96875 C 15.390625 17.140625 15.378906 17.128906 15.300781 17.554688 C 15.257812 17.796875 15.136719 18.179688 15.050781 18.398438 C 14.953125 18.625 14.875 19.03125 14.875 19.304688 C 14.875 19.742188 14.90625 19.820312 15.179688 19.917969 C 15.476562 20.039062 15.476562 20.039062 15.234375 20.148438 C 14.929688 20.289062 14.722656 20.210938 14.492188 19.863281 C 14.339844 19.632812 14.328125 19.523438 14.425781 19.238281 C 14.558594 18.855469 14.570312 17.621094 14.460938 16.855469 L 14.382812 16.382812 L 13.5625 16.351562 C 12.492188 16.308594 12.347656 16.273438 12.097656 16.046875 C 11.976562 15.945312 11.789062 15.859375 11.679688 15.859375 C 11.570312 15.859375 11.453125 15.78125 11.417969 15.695312 C 11.242188 15.234375 10.171875 17.652344 10.171875 18.507812 C 10.171875 19.117188 10.414062 19.710938 10.742188 19.894531 C 11.132812 20.125 11.125 20.234375 10.71875 20.234375 C 10.3125 20.234375 9.875 19.785156 9.722656 19.195312 C 9.667969 18.953125 9.515625 18.472656 9.394531 18.125 C 9.242188 17.675781 9.210938 17.445312 9.285156 17.347656 C 9.394531 17.214844 9.273438 16.722656 8.761719 15.300781 C 8.628906 14.941406 8.53125 14.351562 8.507812 13.878906 C 8.5 13.429688 8.421875 12.972656 8.34375 12.851562 C 8.269531 12.730469 8.203125 12.402344 8.203125 12.117188 C 8.203125 11.691406 8.269531 11.527344 8.519531 11.242188 C 8.792969 10.9375 8.914062 10.882812 9.351562 10.882812 C 9.800781 10.882812 9.910156 10.925781 10.171875 11.242188 C 10.433594 11.5625 10.523438 11.605469 10.839844 11.539062 C 11.046875 11.507812 11.660156 11.5625 12.195312 11.660156 C 12.742188 11.746094 13.835938 11.835938 14.644531 11.84375 L 16.109375 11.867188 L 16.429688 11.5625 C 16.691406 11.289062 16.734375 11.15625 16.734375 10.632812 C 16.746094 9.65625 17.183594 8.761719 17.9375 8.214844 C 18.570312 7.734375 18.769531 7.667969 18.660156 7.929688 Z M 18.660156 7.929688 "/>
</g>
</svg>
